<mxfile host="app.diagrams.net" modified="2024-02-10T10:55:08.563Z" agent="Mozilla/5.0 (X11; Linux x86_64) AppleWebKit/537.36 (KHTML, like Gecko) Chrome/121.0.0.0 Safari/537.36" version="23.1.2" etag="eSI0RcsmobQiysdPNJIm" type="github">
  <diagram name="Page-1" id="yEMy-WlOk-Holy4csSlN">
    <mxGraphModel>
      <root>
        <mxCell id="0" />
        <mxCell id="1" parent="0" />
      </root>
    </mxGraphModel>
  </diagram>
</mxfile>
